:SAMPLES-PER-SECOND 30
:FULLY-SPECIFIED
:DEGREES
794
root  -48.6221 38.9438 -0.127362 -164.918 -84.9633 157.785
RightUpLeg  16.5052 -1.53336 -2.32614
RightLeg  17.7897 4.59249 0.823895
RightFoot  -21.7442 -0.182553 -0.413171
RightToes  -1.16417e-010 0 -3.6325e-017
Spine  0.0556745 2.78538 5.66557
Spine1  10.9011 5.04073 -7.28796
HEad  -14.2296 -3.44749 -0.941734
LeftShoulder1  -0.755906 5.41521 -33.3804
LeftArm  12.0023 9.74928 -38.958
LeftForeArm  19.0457 -20.4431 -4.86603
LeftHand  -0.0739977 8.79093 -0.877096
RightShoulder  -0.85581 -5.85377 29.8133
RightArm  19.2163 3.62897 51.7187
RightForeArm  24.9526 5.84118 9.53753
RightHand  0.0404085 2.40487 0.384181
LeftUpLeg  -16.3102 5.38353 -1.65116
LeftLeg  11.9871 4.89903 0.83875
LeftFoot  9.84418 -1.03838 5.26444
LeftToes  3.13772e-010 -3.14513e-011 3.96022e-013
795
root  -49.7534 38.8937 0.0645043 -149.893 -84.4852 142.092
RightUpLeg  17.5265 0.300451 -4.15163
RightLeg  20.7388 3.68764 1.33987
RightFoot  -21.7411 0.133084 3.0972
RightToes  -1.16417e-010 0 -3.6325e-017
Spine  0.428962 2.44693 2.68606
Spine1  10.6898 4.41266 -6.22544
HEad  -13.9911 -3.18108 -0.984622
LeftShoulder1  -0.751326 5.40232 -33.4085
LeftArm  10.1203 8.23131 -38.926
LeftForeArm  20.5807 -18.6367 -5.76533
LeftHand  -0.0994712 9.34085 -1.31671
RightShoulder  -0.867878 -5.8954 29.6718
RightArm  17.8608 0.230391 51.2666
RightForeArm  28.1229 4.97408 9.18714
RightHand  0.0450867 2.47516 0.451754
LeftUpLeg  -15.67 6.0575 -3.85374
LeftLeg  15.5465 4.17739 1.41943
LeftFoot  7.21855 -0.991671 5.78931
LeftToes  3.13772e-010 -3.14513e-011 3.96022e-013
796
root  -50.7261 38.9357 0.268425 -142.141 -83.9386 134.455
RightUpLeg  16.2229 0.95969 -5.74563
RightLeg  25.7336 4.19026 2.00691
RightFoot  -19.9604 0.447029 7.80639
RightToes  -1.16417e-010 0 -3.6325e-017
Spine  0.8663 2.18693 1.01192
Spine1  9.91186 4.03417 -6.7085
HEad  -13.5981 -2.68243 -0.840945
LeftShoulder1  -0.760369 5.42609 -33.3884
LeftArm  8.03499 5.86143 -38.5043
LeftForeArm  23.428 -15.7212 -7.36991
LeftHand  -0.145448 10.5493 -1.88845
RightShoulder  -0.955836 -6.08811 30.415
RightArm  17.1829 -3.2816 49.7781
RightForeArm  28.4992 4.97904 8.7932
RightHand  0.0273608 1.45099 0.358075
LeftUpLeg  -15.0236 6.40261 -5.259
LeftLeg  17.1777 3.97785 1.55208
LeftFoot  4.91796 -0.90083 6.09174
LeftToes  3.13772e-010 -3.14513e-011 3.96022e-013
797
root  -51.5889 38.996 0.511475 -143.617 -82.5463 136.057
RightUpLeg  12.6905 1.16369 -8.10422
RightLeg  33.5664 5.7935 3.89131
RightFoot  -15.9675 0.403649 13.0209
RightToes  -1.16417e-010 0 -3.6325e-017
Spine  1.18013 2.37201 0.101745
Spine1  9.98298 4.13924 -7.55326
HEad  -14.0119 -2.35696 -1.30733
LeftShoulder1  -0.768363 5.44183 -33.4752
LeftArm  3.67115 3.39787 -38.7365
LeftForeArm  28.0712 -12.4413 -8.69505
LeftHand  -0.10571 9.6501 -1.38752
RightShoulder  -0.90622 -5.97211 30.1197
RightArm  16.1458 -6.16192 49.0035
RightForeArm  27.8187 5.36087 8.23696
RightHand  0.0818355 1.34083 1.2992
LeftUpLeg  -14.146 6.9339 -6.22064
LeftLeg  18.1562 4.76559 1.73211
LeftFoot  2.92314 -0.820483 6.40462
LeftToes  3.13772e-010 -3.14513e-011 3.96022e-013
798
root  -52.3916 39.0671 0.756719 -146.773 -81.1164 139.462
RightUpLeg  7.46483 1.72791 -10.1233
RightLeg  42.7149 6.39213 6.01154
RightFoot  -8.69477 -0.382279 15.3911
RightToes  -1.16417e-010 0 -3.6325e-017
Spine  2.00125 2.38897 -0.272026
Spine1  9.20066 4.17922 -8.54041
HEad  -14.4378 -1.80359 -1.81638
LeftShoulder1  -0.735342 5.38199 -32.9936
LeftArm  0.683628 1.62665 -39.3782
LeftForeArm  32.3524 -10.4481 -9.07691
LeftHand  -0.113916 9.29081 -1.68667
RightShoulder  -0.831282 -5.80078 29.5725
RightArm  16.2533 -8.19241 48.5201
RightForeArm  26.8386 6.03677 8.20736
RightHand  0.0516829 2.23965 0.592727
LeftUpLeg  -13.286 7.57209 -6.86246
LeftLeg  18.7267 5.57261 1.77919
LeftFoot  1.1474 -0.724571 6.55168
LeftToes  3.13772e-010 -3.14513e-011 3.96022e-013
799
root  -53.1298 39.1398 0.957488 -147.847 -80.0547 140.654
RightUpLeg  1.98774 2.02179 -11.6325
RightLeg  51.1627 5.87467 7.37917
RightFoot  -0.321716 -1.30631 13.4213
RightToes  -1.16417e-010 0 -3.6325e-017
Spine  2.79142 2.08965 -1.59992
Spine1  8.83762 3.6469 -8.04906
HEad  -15.9178 -0.245207 -2.51871
LeftShoulder1  -0.729932 5.37559 -32.8292
LeftArm  -0.371724 -0.229655 -39.8374
LeftForeArm  34.323 -9.7554 -9.11785
LeftHand  -0.181103 10.4364 -2.70456
RightShoulder  -0.81078 -5.76116 29.2861
RightArm  17.3117 -8.75228 47.8294
RightForeArm  25.2494 7.43125 8.30525
RightHand  0.0323746 1.89975 0.359433
LeftUpLeg  -12.253 7.67345 -7.48481
LeftLeg  18.9191 6.54639 1.89788
LeftFoot  -0.180101 -0.670048 6.86136
LeftToes  3.13772e-010 -3.14513e-011 3.96022e-013
800
root  -53.7815 39.1514 1.11609 -149.533 -79.2306 142.169
RightUpLeg  -2.38881 2.09158 -12.4975
RightLeg  56.8889 4.21896 6.5139
RightFoot  2.67894 -1.52442 12.4758
RightToes  -1.16417e-010 0 -3.6325e-017
Spine  3.73565 1.84954 -3.09536
Spine1  9.07243 3.0366 -7.32575
HEad  -18.0946 0.56692 -2.92904
LeftShoulder1  -0.624101 5.11566 -32.5768
LeftArm  0.519359 -1.93671 -40.1258
LeftForeArm  33.0166 -9.70427 -9.38283
LeftHand  -0.115838 9.4959 -1.72877
RightShoulder  -0.885594 -5.95021 29.602
RightArm  18.8516 -7.99738 46.746
RightForeArm  23.4923 8.77087 8.3443
RightHand  0.0225796 2.2933 0.181291
LeftUpLeg  -11.3389 7.83938 -7.82019
LeftLeg  19.6698 7.42833 2.02313
LeftFoot  -1.5995 -0.599009 7.13028
LeftToes  3.13772e-010 -3.14513e-011 3.96022e-013
801
root  -54.4229 39.2443 1.24851 -151.542 -79.185 144.02
RightUpLeg  -5.95691 1.27782 -12.6979
RightLeg  59.9867 2.91836 4.99503
RightFoot  0.920538 -1.28269 11.9541
RightToes  -1.16417e-010 0 -3.6325e-017
Spine  4.5547 1.39622 -4.65636
Spine1  9.13904 1.97065 -5.35167
HEad  -19.9369 1.58304 -3.86973
LeftShoulder1  -0.549745 4.91437 -32.8219
LeftArm  2.98285 -3.14574 -40.1372
LeftForeArm  30.1571 -11.0126 -9.39527
LeftHand  -0.139862 10.2106 -1.93006
RightShoulder  -0.799471 -5.74868 28.9924
RightArm  18.3015 -7.52492 46.7348
RightForeArm  23.3623 9.73322 7.82922
RightHand  0.0998387 1.35387 1.5686
LeftUpLeg  -10.0609 7.90914 -7.68149
LeftLeg  19.6995 7.72571 1.98801
LeftFoot  -2.63888 -0.540288 7.30057
LeftToes  3.13772e-010 -3.14513e-011 3.96022e-013
802
root  -55.052 39.3657 1.3543 -154.306 -79.3214 146.878
RightUpLeg  -9.08018 0.456337 -12.237
RightLeg  60.0498 2.14163 3.55363
RightFoot  0.55895 -1.0427 10.0243
RightToes  -1.16417e-010 0 -3.6325e-017
Spine  5.03945 1.04653 -5.02257
Spine1  9.11286 1.36629 -4.43766
HEad  -20.7325 1.94179 -4.27806
LeftShoulder1  -0.556788 4.93367 -32.7885
LeftArm  3.85177 -4.65523 -40.6182
LeftForeArm  29.328 -11.9955 -9.03288
LeftHand  -0.140635 10.25 -1.89004
RightShoulder  -0.771213 -5.69181 28.6154
RightArm  17.0888 -7.09839 47.0866
RightForeArm  21.6911 10.3765 7.3126
RightHand  0.08334 1.73082 1.2916
LeftUpLeg  -8.94223 7.96926 -7.25088
LeftLeg  19.5095 7.87391 1.87159
LeftFoot  -3.49648 -0.496512 7.53757
LeftToes  3.13772e-010 -3.14513e-011 3.96022e-013
803
root  -55.667 39.5043 1.44632 -156.922 -79.596 149.963
RightUpLeg  -11.8499 -0.325209 -11.2509
RightLeg  57.3605 1.28477 1.73182
RightFoot  0.202265 -0.901769 8.91418
RightToes  -1.16417e-010 0 -3.6325e-017
Spine  5.24734 0.729922 -4.69727
Spine1  8.75676 1.04999 -4.25129
HEad  -21.1741 1.23446 -3.95067
LeftShoulder1  -0.469675 4.73262 -32.0578
LeftArm  5.05093 -5.64167 -41.4923
LeftForeArm  28.1157 -13.1091 -8.61186
LeftHand  -0.183432 10.4551 -2.47249
RightShoulder  -0.793068 -5.74652 28.6856
RightArm  15.7371 -6.68359 47.423
RightForeArm  19.0538 10.9024 6.86312
RightHand  -0.0154372 3.50607 -0.483027
LeftUpLeg  -8.02537 7.70755 -6.73718
LeftLeg  18.8814 8.22567 1.65655
LeftFoot  -4.19704 -0.454251 7.66896
LeftToes  3.13772e-010 -3.14513e-011 3.96022e-013
804
root  -56.2736 39.6481 1.52046 -158.013 -79.5662 151.635
RightUpLeg  -13.9378 -0.682339 -10.4595
RightLeg  52.2687 0.609936 0.47869
RightFoot  -1.04059 -0.765939 8.40561
RightToes  -1.16417e-010 0 -3.6325e-017
Spine  5.0188 0.561415 -4.4326
Spine1  8.6977 1.03858 -4.36884
HEad  -21.2634 0.732484 -3.26502
LeftShoulder1  -0.423286 4.62321 -31.6209
LeftArm  6.15365 -6.95778 -42.2433
LeftForeArm  26.0042 -14.0928 -8.19867
LeftHand  -0.0260076 8.37478 0.524737
RightShoulder  -0.908691 -6.02066 29.4605
RightArm  16.1386 -5.77316 47.1578
RightForeArm  17.5242 12.0177 6.56281
RightHand  -0.00550063 3.71515 -0.326814
LeftUpLeg  -6.99892 6.6757 -6.5863
LeftLeg  17.7013 9.44506 1.49633
LeftFoot  -4.50211 -0.435676 7.73484
LeftToes  3.13772e-010 -3.14513e-011 3.96022e-013
